<svg version="1.1" id="Layer_1" xmlns="http://www.w3.org/2000/svg" xmlns:xlink="http://www.w3.org/1999/xlink" x="0px" y="0px"
	 width="100%" viewBox="0 0 512 512" enable-background="new 0 0 512 512" xml:space="preserve">
<path fill="#0C1219" opacity="1.000000" stroke="none" 
	d="
M245.000000,513.000000 
	C163.353134,513.000000 82.206268,513.000000 1.029702,513.000000 
	C1.029702,342.394775 1.029702,171.789551 1.029702,1.092157 
	C171.563553,1.092157 342.127167,1.092157 512.845398,1.092157 
	C512.845398,171.666565 512.845398,342.333252 512.845398,513.000000 
	C423.789520,513.000000 334.644745,513.000000 245.000000,513.000000 
M229.512634,224.819885 
	C225.754547,224.819885 221.996445,224.819885 218.280579,224.819885 
	C218.280579,234.153412 218.280579,242.894577 218.280579,251.999512 
	C230.143600,251.999512 241.732971,251.999512 253.747604,251.999512 
	C253.747604,258.817719 253.756149,265.275299 253.745667,271.732880 
	C253.728714,282.167847 250.091248,286.001495 239.751953,286.063629 
	C222.759552,286.165710 205.766098,286.157257 188.773315,286.108978 
	C177.807648,286.077850 173.471481,281.650940 173.461258,270.560913 
	C173.439011,246.404114 173.446625,222.247253 173.487015,198.090485 
	C173.507095,186.084244 177.961884,181.566605 190.076797,181.459702 
	C204.903015,181.328842 219.731018,181.309341 234.557846,181.359741 
	C247.470795,181.403641 254.079071,188.031967 254.076767,200.703735 
	C254.076340,203.144150 254.076706,205.584564 254.076706,208.010559 
	C263.791931,208.010559 272.906616,208.010559 282.436859,208.010559 
	C282.436859,201.480209 282.301849,195.170364 282.478973,188.869324 
	C282.624329,183.698181 280.866150,179.490494 277.223175,175.892227 
	C271.653290,170.390656 266.175079,164.796280 260.655243,159.243988 
	C257.068665,155.636353 252.770813,153.987045 247.643921,154.008820 
	C227.152634,154.095856 206.660172,153.975281 186.169708,154.133957 
	C181.884140,154.167145 177.465607,154.540588 173.347565,155.647369 
	C156.056625,160.294510 145.331650,174.984161 145.253098,194.021912 
	C145.142426,220.843842 145.208267,247.666611 145.257050,274.488922 
	C145.261887,277.141693 145.535950,279.813599 145.917664,282.442841 
	C148.212936,298.253296 164.047821,313.521820 179.979385,313.943970 
	C203.451492,314.565857 226.950470,314.451904 250.431778,314.156494 
	C254.063660,314.110779 258.311798,312.196564 261.140778,309.804932 
	C266.967712,304.878784 272.042969,299.060455 277.399414,293.581787 
	C281.080109,289.817078 282.593903,285.342407 282.506409,280.014984 
	C282.304016,267.689972 282.440002,255.359390 282.439117,243.031082 
	C282.438690,237.069443 282.439056,231.107819 282.439056,224.819061 
	C264.793457,224.819061 247.650635,224.819061 229.512634,224.819885 
M368.953918,302.500000 
	C368.953918,283.589050 368.953918,264.678101 368.953918,245.802826 
	C346.613922,245.802826 324.910217,245.802826 303.216583,245.802826 
	C303.216583,248.622635 303.216583,251.066925 303.216583,253.930756 
	C322.324860,253.930756 341.240143,253.930756 360.373688,253.930756 
	C360.373688,277.296783 360.780090,300.251495 360.213440,323.182159 
	C359.899414,335.889862 353.818420,340.767242 340.941559,340.793304 
	C320.951355,340.833801 300.917694,340.001587 280.985535,341.077698 
	C267.169983,341.823547 261.242981,332.842499 254.154480,324.305542 
	C246.969574,324.305542 239.550842,324.305542 232.558868,324.305542 
	C229.936066,334.870148 233.624863,342.786133 241.511230,349.276276 
	C244.581238,351.802734 247.276291,354.820099 249.944031,357.791687 
	C253.781036,362.065674 258.534943,363.765289 264.168243,363.749817 
	C284.824707,363.693085 305.482269,363.838806 326.137817,363.689117 
	C346.411896,363.542206 361.899017,352.369690 366.760010,332.702698 
	C369.069580,323.358582 368.318451,313.257935 368.953918,302.500000 
M365.880188,177.766632 
	C358.817200,161.726624 345.932404,154.802612 329.011108,154.639755 
	C311.021362,154.466583 293.028473,154.612991 275.036987,154.639679 
	C273.756927,154.641571 272.477173,154.806152 271.160889,154.897614 
	C274.343475,161.255554 278.978241,163.478439 286.048065,163.174622 
	C300.347931,162.560043 314.694458,162.887802 329.019531,163.037674 
	C346.815369,163.223831 359.230865,175.080093 360.168640,192.719513 
	C360.432007,197.673889 360.208862,202.654114 360.208862,207.736557 
	C363.529938,207.736557 366.099640,207.736557 370.207581,207.736557 
	C368.785583,197.707016 367.425171,188.112122 365.880188,177.766632 
z"/>
<path fill="#FDFDFD" opacity="1.000000" stroke="none" 
	d="
M230.010223,224.819473 
	C247.650635,224.819061 264.793457,224.819061 282.439056,224.819061 
	C282.439056,231.107819 282.438690,237.069443 282.439117,243.031082 
	C282.440002,255.359390 282.304016,267.689972 282.506409,280.014984 
	C282.593903,285.342407 281.080109,289.817078 277.399414,293.581787 
	C272.042969,299.060455 266.967712,304.878784 261.140778,309.804932 
	C258.311798,312.196564 254.063660,314.110779 250.431778,314.156494 
	C226.950470,314.451904 203.451492,314.565857 179.979385,313.943970 
	C164.047821,313.521820 148.212936,298.253296 145.917664,282.442841 
	C145.535950,279.813599 145.261887,277.141693 145.257050,274.488922 
	C145.208267,247.666611 145.142426,220.843842 145.253098,194.021912 
	C145.331650,174.984161 156.056625,160.294510 173.347565,155.647369 
	C177.465607,154.540588 181.884140,154.167145 186.169708,154.133957 
	C206.660172,153.975281 227.152634,154.095856 247.643921,154.008820 
	C252.770813,153.987045 257.068665,155.636353 260.655243,159.243988 
	C266.175079,164.796280 271.653290,170.390656 277.223175,175.892227 
	C280.866150,179.490494 282.624329,183.698181 282.478973,188.869324 
	C282.301849,195.170364 282.436859,201.480209 282.436859,208.010559 
	C272.906616,208.010559 263.791931,208.010559 254.076706,208.010559 
	C254.076706,205.584564 254.076340,203.144150 254.076767,200.703735 
	C254.079071,188.031967 247.470795,181.403641 234.557846,181.359741 
	C219.731018,181.309341 204.903015,181.328842 190.076797,181.459702 
	C177.961884,181.566605 173.507095,186.084244 173.487015,198.090485 
	C173.446625,222.247253 173.439011,246.404114 173.461258,270.560913 
	C173.471481,281.650940 177.807648,286.077850 188.773315,286.108978 
	C205.766098,286.157257 222.759552,286.165710 239.751953,286.063629 
	C250.091248,286.001495 253.728714,282.167847 253.745667,271.732880 
	C253.756149,265.275299 253.747604,258.817719 253.747604,251.999512 
	C241.732971,251.999512 230.143600,251.999512 218.280579,251.999512 
	C218.280579,242.894577 218.280579,234.153412 218.280579,224.819885 
	C221.996445,224.819885 225.754547,224.819885 230.010223,224.819473 
z"/>
<path fill="#FAFAFA" opacity="1.000000" stroke="none" 
	d="
M368.953888,303.000000 
	C368.318451,313.257935 369.069580,323.358582 366.760010,332.702698 
	C361.899017,352.369690 346.411896,363.542206 326.137817,363.689117 
	C305.482269,363.838806 284.824707,363.693085 264.168243,363.749817 
	C258.534943,363.765289 253.781036,362.065674 249.944031,357.791687 
	C247.276291,354.820099 244.581238,351.802734 241.511230,349.276276 
	C233.624863,342.786133 229.936066,334.870148 232.558868,324.305542 
	C239.550842,324.305542 246.969574,324.305542 254.154480,324.305542 
	C261.242981,332.842499 267.169983,341.823547 280.985535,341.077698 
	C300.917694,340.001587 320.951355,340.833801 340.941559,340.793304 
	C353.818420,340.767242 359.899414,335.889862 360.213440,323.182159 
	C360.780090,300.251495 360.373688,277.296783 360.373688,253.930756 
	C341.240143,253.930756 322.324860,253.930756 303.216583,253.930756 
	C303.216583,251.066925 303.216583,248.622635 303.216583,245.802826 
	C324.910217,245.802826 346.613922,245.802826 368.953918,245.802826 
	C368.953918,264.678101 368.953918,283.589050 368.953888,303.000000 
z"/>
<path fill="#FBFBFB" opacity="1.000000" stroke="none" 
	d="
M365.972473,178.141937 
	C367.425171,188.112122 368.785583,197.707016 370.207581,207.736557 
	C366.099640,207.736557 363.529938,207.736557 360.208862,207.736557 
	C360.208862,202.654114 360.432007,197.673889 360.168640,192.719513 
	C359.230865,175.080093 346.815369,163.223831 329.019531,163.037674 
	C314.694458,162.887802 300.347931,162.560043 286.048065,163.174622 
	C278.978241,163.478439 274.343475,161.255554 271.160889,154.897614 
	C272.477173,154.806152 273.756927,154.641571 275.036987,154.639679 
	C293.028473,154.612991 311.021362,154.466583 329.011108,154.639755 
	C345.932404,154.802612 358.817200,161.726624 365.972473,178.141937 
z"/>
</svg>